HIERARCHY
ROOT Hips
{
	OFFSET 0.000000 89.005402 0.000000
	CHANNELS 6 Xposition Yposition Zposition Xrotation Yrotation Zrotation
	JOINT Spine
	{
		OFFSET 0.116900 10.681000 0.373400
		CHANNELS 3 Xrotation Yrotation Zrotation
		JOINT Spine1
		{
			OFFSET 0.000000 13.840401 0.053500
			CHANNELS 3 Xrotation Yrotation Zrotation
			JOINT Spine2
			{
				OFFSET 0.000000 14.712700 -0.366200
				CHANNELS 3 Xrotation Yrotation Zrotation
				JOINT Neck
				{
					OFFSET 0.000000 35.415497 -3.314200
					CHANNELS 3 Xrotation Yrotation Zrotation
					JOINT Head
					{
						OFFSET 0.000000 16.899200 1.218300
						CHANNELS 3 Xrotation Yrotation Zrotation
						JOINT HeadTop_End
						{
							OFFSET 0.000000 22.206207 2.192500
							CHANNELS 3 Xrotation Yrotation Zrotation
							End Site
							{
								OFFSET 0.000000 22.314178 0.000000
							}
						}
					}
				}
				JOINT LeftShoulder
				{
					OFFSET 12.896400 26.716293 -4.548400
					CHANNELS 3 Xrotation Yrotation Zrotation
					JOINT LeftArm
					{
						OFFSET 19.027000 -4.857010 -1.718400
						CHANNELS 3 Xrotation Yrotation Zrotation
						JOINT LeftForeArm
						{
							OFFSET 24.179897 0.000000 0.000000
							CHANNELS 3 Xrotation Yrotation Zrotation
							JOINT LeftHand
							{
								OFFSET 27.156403 0.000000 0.000000
								CHANNELS 3 Xrotation Yrotation Zrotation
								JOINT LeftHandIndex1
								{
									OFFSET 16.441200 0.000000 0.000000
									CHANNELS 3 Xrotation Yrotation Zrotation
									JOINT LeftHandIndex2
									{
										OFFSET 4.821899 0.000000 0.000000
										CHANNELS 3 Xrotation Yrotation Zrotation
										JOINT LeftHandIndex3
										{
											OFFSET 6.386497 0.000000 0.000000
											CHANNELS 3 Xrotation Yrotation Zrotation
											JOINT LeftHandIndex4
											{
												OFFSET 5.188988 0.000000 0.000000
												CHANNELS 3 Xrotation Yrotation Zrotation
												End Site
												{
													OFFSET -0.178703 5.185913 0.000177
												}
											}
										}
									}
								}
								JOINT LeftHandThumb1
								{
									OFFSET 6.534897 -5.032593 5.900300
									CHANNELS 3 Xrotation Yrotation Zrotation
									JOINT LeftHandThumb2
									{
										OFFSET 3.818176 -2.204422 2.204423
										CHANNELS 3 Xrotation Yrotation Zrotation
										JOINT LeftHandThumb3
										{
											OFFSET 3.252098 -1.877594 1.877601
											CHANNELS 3 Xrotation Yrotation Zrotation
											JOINT LeftHandThumb4
											{
												OFFSET 5.251778 -3.032120 3.032117
												CHANNELS 3 Xrotation Yrotation Zrotation
												End Site
												{
													OFFSET 0.000023 6.780014 0.000000
												}
											}
										}
									}
								}
							}
						}
					}
				}
				JOINT RightShoulder
				{
					OFFSET -12.896300 26.716293 -4.548400
					CHANNELS 3 Xrotation Yrotation Zrotation
					JOINT RightArm
					{
						OFFSET -19.027000 -4.857010 -1.718400
						CHANNELS 3 Xrotation Yrotation Zrotation
						JOINT RightForeArm
						{
							OFFSET -24.179897 0.000000 0.000000
							CHANNELS 3 Xrotation Yrotation Zrotation
							JOINT RightHand
							{
								OFFSET -27.156403 0.000000 0.000000
								CHANNELS 3 Xrotation Yrotation Zrotation
								JOINT RightHandThumb1
								{
									OFFSET -6.591202 -4.852203 5.988100
									CHANNELS 3 Xrotation Yrotation Zrotation
									JOINT RightHandThumb2
									{
										OFFSET -3.818176 -2.204422 2.204423
										CHANNELS 3 Xrotation Yrotation Zrotation
										JOINT RightHandThumb3
										{
											OFFSET -3.252098 -1.877594 1.877601
											CHANNELS 3 Xrotation Yrotation Zrotation
											JOINT RightHandThumb4
											{
												OFFSET -5.251778 -3.032120 3.032117
												CHANNELS 3 Xrotation Yrotation Zrotation
												End Site
												{
													OFFSET -0.000023 6.780014 0.000000
												}
											}
										}
									}
								}
								JOINT RightHandIndex1
								{
									OFFSET -16.029404 0.000000 0.000000
									CHANNELS 3 Xrotation Yrotation Zrotation
									JOINT RightHandIndex2
									{
										OFFSET -5.213303 0.000000 0.000000
										CHANNELS 3 Xrotation Yrotation Zrotation
										JOINT RightHandIndex3
										{
											OFFSET -6.386528 0.000000 0.000000
											CHANNELS 3 Xrotation Yrotation Zrotation
											JOINT RightHandIndex4
											{
												OFFSET -5.189026 0.000000 0.000000
												CHANNELS 3 Xrotation Yrotation Zrotation
												End Site
												{
													OFFSET 0.236702 5.183624 0.001972
												}
											}
										}
									}
								}
							}
						}
					}
				}
			}
		}
	}
	JOINT LeftUpLeg
	{
		OFFSET 14.073000 -7.904099 -1.463000
		CHANNELS 3 Xrotation Yrotation Zrotation
		JOINT LeftLeg
		{
			OFFSET -0.109806 -34.073280 4.093200
			CHANNELS 3 Xrotation Yrotation Zrotation
			JOINT LeftFoot
			{
				OFFSET 0.109806 -29.899420 -6.319000
				CHANNELS 3 Xrotation Yrotation Zrotation
				JOINT LeftToeBase
				{
					OFFSET 1.551100 -14.988700 20.535801
					CHANNELS 3 Xrotation Yrotation Zrotation
					JOINT LeftToe_End
					{
						OFFSET 0.221200 0.570800 13.248301
						CHANNELS 3 Xrotation Yrotation Zrotation
						End Site
						{
							OFFSET 0.000000 13.262435 0.000000
						}
					}
				}
			}
		}
	}
	JOINT RightUpLeg
	{
		OFFSET -13.839300 -7.904099 -1.463000
		CHANNELS 3 Xrotation Yrotation Zrotation
		JOINT RightLeg
		{
			OFFSET 0.109694 -34.073219 4.093300
			CHANNELS 3 Xrotation Yrotation Zrotation
			JOINT RightFoot
			{
				OFFSET -0.109694 -29.899384 -6.319200
				CHANNELS 3 Xrotation Yrotation Zrotation
				JOINT RightToeBase
				{
					OFFSET -1.551100 -14.988700 20.535801
					CHANNELS 3 Xrotation Yrotation Zrotation
					JOINT RightToe_End
					{
						OFFSET -0.221200 0.570900 13.248299
						CHANNELS 3 Xrotation Yrotation Zrotation
						End Site
						{
							OFFSET 0.000000 13.262440 0.000000
						}
					}
				}
			}
		}
	}
}
MOTION
Frames: 5
Frame Time: 0.033333
-1.392786 60.565399 3.887951 16.973075 -15.158015 10.256984 6.651566 3.989404 1.163574 13.258686 7.116334 2.025421 13.258685 7.116332 2.025419 -17.254706 -17.176107 4.938087 -24.630203 -40.083433 -5.261508 -0.000000 0.000000 -0.000000 0.837910 1.721455 -15.195569 -9.008256 9.639995 -33.440589 29.729870 -43.450631 -1.767154 26.638074 -5.442919 -15.734527 -0.784650 -6.760575 -15.803325 -1.507326 -0.913364 -34.562017 -0.000001 0.000004 0.000001 -0.000001 -0.000001 0.000001 11.941945 -9.486907 0.571353 5.685803 14.249609 5.469075 0.000008 0.000002 0.000003 0.000000 -0.000002 0.000001 1.740009 9.309087 16.323408 -16.976980 -0.995079 5.531383 20.822093 28.457037 -2.030719 12.169166 13.601743 6.609296 0.461553 11.375482 -18.843570 9.805479 -11.570981 -1.360056 0.000003 0.000009 -0.000005 -0.000002 -0.000001 0.000000 -0.233113 5.931881 4.378061 -0.962955 -0.260610 28.927436 -0.000003 0.000001 0.000002 -0.000002 0.000001 -0.000000 -94.017308 5.184837 2.866046 74.528832 16.747974 -11.133520 7.948127 0.020780 -3.134801 -1.891449 4.539619 -2.130827 0.000000 -0.000000 0.000001 -59.124774 -10.404867 -7.044113 94.841350 -4.370808 5.325832 -54.390436 3.563098 -6.679911 -0.078135 2.039512 0.002778 0.000000 -0.000003 -0.000000 
-4.524594 60.629341 4.088644 16.805201 -16.184955 8.919706 6.774723 4.343452 1.134760 13.487758 7.585959 2.122725 13.487761 7.585965 2.122733 -17.141307 -17.573310 5.910075 -25.192670 -39.645768 -6.140960 -0.000001 -0.000002 0.000000 0.813395 1.445743 -14.935175 -9.309591 10.716087 -33.277204 28.407385 -42.529723 -2.268668 27.292575 -5.263756 -15.143334 -0.521066 -6.817430 -14.321452 -1.512207 -0.896753 -34.496734 -0.000002 0.000008 -0.000002 0.000002 0.000001 0.000001 13.224450 -9.914169 -0.340429 4.913493 13.631485 6.193801 0.000007 0.000006 0.000003 -0.000000 0.000001 0.000001 1.680095 9.852234 16.678227 -17.203942 0.515276 5.005459 20.930471 28.750271 -1.762018 11.792751 13.060216 7.068667 0.159999 11.608424 -18.817542 10.184446 -11.572203 -0.844054 0.000000 0.000010 -0.000007 0.000002 0.000001 -0.000001 -0.446460 5.398265 4.686441 -0.937523 -0.307299 28.399787 -0.000005 0.000001 0.000002 -0.000002 -0.000000 0.000001 -93.077269 9.256047 0.267513 70.144977 16.472403 -14.330522 13.436358 -0.770697 -4.253077 -6.801543 2.649335 4.180931 0.000000 -0.000000 0.000000 -55.087033 -14.073282 -2.854857 92.762220 -5.556804 6.419530 -55.699510 5.499986 -9.189934 -1.221012 2.525457 -1.292484 -0.000000 -0.000001 -0.000000 
-7.658134 60.544235 4.208975 15.847757 -17.558383 7.141058 7.078479 4.707404 1.118065 14.077636 8.100209 2.216890 14.077634 8.100207 2.216888 -16.884103 -18.021353 7.234305 -25.519825 -38.901117 -6.596119 -0.000002 0.000001 -0.000001 0.750494 1.045659 -13.814595 -9.450555 11.733524 -33.467442 28.007744 -41.895233 -1.888192 28.502229 -4.847539 -15.285579 -0.848380 -6.845746 -15.065324 -1.526185 -0.851731 -34.328585 -0.000001 0.000006 -0.000001 0.000001 -0.000001 0.000001 12.367714 -8.749209 0.218919 5.753493 13.066503 5.500184 0.000008 -0.000002 0.000002 -0.000000 -0.000001 -0.000000 1.614287 10.538985 17.455593 -17.518196 2.149921 3.666595 20.935983 30.145180 -1.469732 11.276770 12.763201 6.604874 -0.576157 11.994372 -19.157958 9.784974 -10.734020 -0.317167 0.000000 0.000010 -0.000005 -0.000002 0.000000 -0.000001 -0.498019 5.068356 3.520921 -0.869106 -0.437652 26.921052 -0.000005 0.000001 0.000003 -0.000000 -0.000000 0.000000 -90.146729 12.794556 -3.333553 66.776724 18.508110 -16.671831 16.609406 -1.700895 -1.465667 -7.525001 0.974661 6.325962 -0.000000 0.000000 -0.000000 -49.683110 -18.161343 1.172234 90.405074 -4.665599 7.546895 -56.774698 7.917895 -12.642042 -2.941642 3.565995 -3.866986 -0.000000 0.000001 -0.000000 
-10.750959 60.309578 4.276684 15.498510 -18.935245 5.747583 7.161870 4.982392 1.018977 14.231124 8.546721 2.155259 14.231115 8.546720 2.155254 -16.104167 -18.423327 8.795272 -25.511453 -37.962038 -6.581563 -0.000000 -0.000001 0.000000 0.676361 1.014453 -11.985859 -9.347718 12.883637 -33.635485 27.825672 -41.761856 -0.958347 29.460266 -4.789790 -15.527037 -1.094062 -6.695160 -15.104805 -1.503248 -0.766808 -33.615411 -0.000003 0.000006 0.000001 -0.000002 -0.000001 0.000001 9.613830 -6.072679 2.371207 7.397973 11.637914 4.192124 0.000008 0.000000 0.000003 -0.000000 0.000000 0.000000 1.768136 11.384728 17.313216 -17.783408 2.914244 3.459597 20.711570 32.205466 -1.442422 11.070274 13.019410 6.084216 -1.354078 12.428386 -19.543087 9.016530 -9.385939 0.160577 0.000001 0.000010 -0.000005 -0.000001 0.000000 -0.000001 -0.525795 4.841644 1.823291 -0.782564 -0.615557 24.933387 -0.000007 0.000000 0.000003 -0.000002 -0.000001 0.000001 -86.752405 15.354118 -8.030855 65.266883 23.767955 -18.205482 16.976150 -2.435256 6.375647 -8.793051 1.052166 8.676483 -0.000000 -0.000000 0.000001 -44.577438 -22.145848 4.898121 87.908612 -2.265588 8.700373 -57.160395 10.783869 -16.789030 -4.037814 5.349458 -6.287240 0.000000 0.000000 0.000000 
-13.707604 59.997467 4.263449 15.945869 -20.200921 5.441423 7.035886 5.228192 0.716427 13.976101 9.106064 1.720033 13.976091 9.106073 1.720034 -15.577933 -18.777404 9.769290 -25.495899 -37.730768 -6.449859 -0.000000 0.000001 -0.000000 0.615969 1.022202 -10.511669 -9.509549 13.462716 -32.952483 27.285902 -42.178447 -0.568724 29.354398 -4.611882 -14.417438 -1.266035 -6.670311 -14.527143 -1.498562 -0.671804 -32.979695 -0.000005 0.000003 0.000002 -0.000000 -0.000002 -0.000001 9.090957 -5.839042 2.773266 6.768088 9.968338 4.032822 0.000008 -0.000002 0.000003 -0.000000 0.000000 -0.000001 1.864783 11.898476 17.430919 -17.832222 2.706467 3.103801 20.705351 34.518929 -1.532564 11.071432 13.426508 5.554922 -1.610569 12.405912 -19.700938 8.197523 -7.761310 0.434506 -0.000001 0.000009 -0.000005 -0.000001 0.000000 -0.000002 -0.550909 4.656438 0.019246 -0.702634 -0.795416 22.969361 -0.000006 0.000000 0.000002 0.000003 -0.000000 -0.000000 -82.133578 16.330713 -14.600974 62.345912 31.116662 -18.346378 13.196132 -3.321014 21.075942 -13.300843 -3.468597 23.642821 -0.000000 -0.000000 -0.000000 -40.352040 -25.967018 7.772305 85.503832 1.027312 9.721973 -56.628262 13.892480 -21.702685 -5.596150 7.506708 -8.811406 0.000001 0.000001 -0.000000 
